# Blender 3.4.1
# www.blender.org
o Circle.001
v 0.000000 -0.000002 5.000000
v -0.975452 -0.000002 4.903926
v -1.913417 -0.000001 4.619398
v -2.777851 -0.000001 4.157348
v -3.535534 -0.000001 3.535534
v -4.157348 -0.000001 2.777851
v -4.619398 -0.000001 1.913417
v -4.903926 -0.000000 0.975452
v -5.000000 0.000000 0.000000
v -4.903926 0.000000 -0.975452
v -4.619398 0.000001 -1.913417
v -4.157348 0.000001 -2.777851
v -3.535534 0.000001 -3.535534
v -2.777851 0.000001 -4.157348
v -1.913417 0.000001 -4.619398
v -0.975452 0.000002 -4.903926
v 0.000000 0.000002 -5.000000
v 0.975452 0.000002 -4.903926
v 1.913417 0.000001 -4.619398
v 2.777851 0.000001 -4.157348
v 3.535534 0.000001 -3.535534
v 4.157348 0.000001 -2.777851
v 4.619398 0.000001 -1.913417
v 4.903926 0.000000 -0.975452
v 5.000000 0.000000 0.000000
v 4.903926 -0.000000 0.975452
v 4.619398 -0.000001 1.913417
v 4.157348 -0.000001 2.777851
v 3.535534 -0.000001 3.535534
v 2.777851 -0.000001 4.157348
v 1.913417 -0.000001 4.619398
v 0.975452 -0.000002 4.903926
v -0.902677 -0.000001 4.538065
v 0.000000 -0.000001 4.626971
v -1.770665 -0.000001 4.274764
v -2.570607 -0.000001 3.847186
v -3.271762 -0.000001 3.271762
v -3.847186 -0.000001 2.570607
v -4.274764 -0.000001 1.770665
v -4.538065 -0.000000 0.902677
v -4.626971 0.000000 0.000000
v -4.538065 0.000000 -0.902677
v -4.274764 0.000001 -1.770665
v -3.847186 0.000001 -2.570607
v -3.271762 0.000001 -3.271762
v -2.570607 0.000001 -3.847186
v -1.770665 0.000001 -4.274764
v -0.902677 0.000001 -4.538065
v 0.000000 0.000001 -4.626971
v 0.902677 0.000001 -4.538065
v 1.770665 0.000001 -4.274764
v 2.570607 0.000001 -3.847186
v 3.271762 0.000001 -3.271762
v 3.847186 0.000001 -2.570607
v 4.274764 0.000001 -1.770665
v 4.538065 0.000000 -0.902677
v 4.626971 0.000000 0.000000
v 4.538065 -0.000000 0.902677
v 4.274764 -0.000001 1.770665
v 3.847186 -0.000001 2.570607
v 3.271762 -0.000001 3.271762
v 2.570607 -0.000001 3.847186
v 1.770665 -0.000001 4.274764
v 0.902677 -0.000001 4.538065
v 0.000000 0.000001 -5.000000
v -0.975452 0.000001 -4.903926
v -1.913417 0.000001 -4.619398
v -2.777851 0.000001 -4.157348
v -3.535534 0.000001 -3.535534
v -4.157348 0.000000 -2.777851
v -4.619398 0.000000 -1.913417
v -4.903926 0.000000 -0.975452
v -5.000000 0.000000 0.000000
v -4.903926 -0.000000 0.975452
v -4.619398 -0.000000 1.913417
v -4.157348 -0.000000 2.777851
v -3.535534 -0.000001 3.535534
v -2.777851 -0.000001 4.157348
v -1.913417 -0.000001 4.619398
v -0.975452 -0.000001 4.903926
v 0.000000 -0.000001 5.000000
v 0.975452 -0.000001 4.903926
v 1.913417 -0.000001 4.619398
v 2.777851 -0.000001 4.157348
v 3.535534 -0.000001 3.535534
v 4.157348 -0.000000 2.777851
v 4.619398 -0.000000 1.913417
v 4.903926 -0.000000 0.975452
v 5.000000 0.000000 0.000000
v 4.903926 0.000000 -0.975452
v 4.619398 0.000000 -1.913417
v 4.157348 0.000000 -2.777851
v 3.535534 0.000001 -3.535534
v 2.777851 0.000001 -4.157348
v 1.913417 0.000001 -4.619398
v 0.975452 0.000001 -4.903926
v -0.902677 0.000001 -4.538065
v 0.000000 0.000001 -4.626971
v -1.770665 0.000001 -4.274764
v -2.570607 0.000001 -3.847186
v -3.271762 0.000001 -3.271762
v -3.847186 0.000000 -2.570607
v -4.274764 0.000000 -1.770665
v -4.538065 0.000000 -0.902677
v -4.626971 0.000000 0.000000
v -4.538065 -0.000000 0.902677
v -4.274764 -0.000000 1.770665
v -3.847186 -0.000000 2.570607
v -3.271762 -0.000001 3.271762
v -2.570607 -0.000001 3.847186
v -1.770665 -0.000001 4.274764
v -0.902677 -0.000001 4.538065
v 0.000000 -0.000001 4.626971
v 0.902677 -0.000001 4.538065
v 1.770665 -0.000001 4.274764
v 2.570607 -0.000001 3.847186
v 3.271762 -0.000001 3.271762
v 3.847186 -0.000000 2.570607
v 4.274764 -0.000000 1.770665
v 4.538065 -0.000000 0.902677
v 4.626971 0.000000 0.000000
v 4.538065 0.000000 -0.902677
v 4.274764 0.000000 -1.770665
v 3.847186 0.000000 -2.570607
v 3.271762 0.000001 -3.271762
v 2.570607 0.000001 -3.847186
v 1.770665 0.000001 -4.274764
v 0.902677 0.000001 -4.538065
vn -0.0000 -1.0000 -0.0000
vn -0.0000 1.0000 -0.0000
vt 0.500000 1.000000
vt 0.402455 0.990393
vt 0.308658 0.961940
vt 0.222215 0.915735
vt 0.146447 0.853553
vt 0.084265 0.777785
vt 0.038060 0.691342
vt 0.009607 0.597545
vt 0.000000 0.500000
vt 0.009607 0.402455
vt 0.038060 0.308658
vt 0.084265 0.222215
vt 0.146447 0.146447
vt 0.222215 0.084265
vt 0.308658 0.038060
vt 0.402455 0.009607
vt 0.500000 0.000000
vt 0.597545 0.009607
vt 0.691342 0.038060
vt 0.777785 0.084265
vt 0.853553 0.146447
vt 0.915735 0.222215
vt 0.961940 0.308658
vt 0.990393 0.402455
vt 1.000000 0.500000
vt 0.990393 0.597545
vt 0.961940 0.691342
vt 0.915735 0.777785
vt 0.853553 0.853553
vt 0.777785 0.915735
vt 0.691342 0.961940
vt 0.597545 0.990393
vt 0.451227 0.745196
vt 0.500000 0.750000
vt 0.404329 0.730970
vt 0.361107 0.707867
vt 0.323223 0.676777
vt 0.292133 0.638893
vt 0.269030 0.595671
vt 0.254804 0.548773
vt 0.250000 0.500000
vt 0.254804 0.451227
vt 0.269030 0.404329
vt 0.292133 0.361107
vt 0.323223 0.323223
vt 0.361107 0.292133
vt 0.404329 0.269030
vt 0.451227 0.254804
vt 0.500000 0.250000
vt 0.548773 0.254804
vt 0.595671 0.269030
vt 0.638893 0.292133
vt 0.676777 0.323223
vt 0.707867 0.361107
vt 0.730970 0.404329
vt 0.745196 0.451227
vt 0.750000 0.500000
vt 0.745196 0.548773
vt 0.730970 0.595671
vt 0.707867 0.638893
vt 0.676777 0.676777
vt 0.638893 0.707867
vt 0.595671 0.730970
vt 0.548773 0.745196
vt 0.500000 1.000000
vt 0.402455 0.990393
vt 0.308658 0.961940
vt 0.222215 0.915735
vt 0.146447 0.853553
vt 0.084265 0.777785
vt 0.038060 0.691342
vt 0.009607 0.597545
vt 0.000000 0.500000
vt 0.009607 0.402455
vt 0.038060 0.308658
vt 0.084265 0.222215
vt 0.146447 0.146447
vt 0.222215 0.084265
vt 0.308658 0.038060
vt 0.402455 0.009607
vt 0.500000 0.000000
vt 0.597545 0.009607
vt 0.691342 0.038060
vt 0.777785 0.084265
vt 0.853553 0.146447
vt 0.915735 0.222215
vt 0.961940 0.308658
vt 0.990393 0.402455
vt 1.000000 0.500000
vt 0.990393 0.597545
vt 0.961940 0.691342
vt 0.915735 0.777785
vt 0.853553 0.853553
vt 0.777785 0.915735
vt 0.691342 0.961940
vt 0.597545 0.990393
vt 0.451227 0.745196
vt 0.500000 0.750000
vt 0.404329 0.730970
vt 0.361107 0.707867
vt 0.323223 0.676777
vt 0.292133 0.638893
vt 0.269030 0.595671
vt 0.254804 0.548773
vt 0.250000 0.500000
vt 0.254804 0.451227
vt 0.269030 0.404329
vt 0.292133 0.361107
vt 0.323223 0.323223
vt 0.361107 0.292133
vt 0.404329 0.269030
vt 0.451227 0.254804
vt 0.500000 0.250000
vt 0.548773 0.254804
vt 0.595671 0.269030
vt 0.638893 0.292133
vt 0.676777 0.323223
vt 0.707867 0.361107
vt 0.730970 0.404329
vt 0.745196 0.451227
vt 0.750000 0.500000
vt 0.745196 0.548773
vt 0.730970 0.595671
vt 0.707867 0.638893
vt 0.676777 0.676777
vt 0.638893 0.707867
vt 0.595671 0.730970
vt 0.548773 0.745196
s 0
f 34/34/1 2/2/1 33/33/1
f 2/2/1 35/35/1 33/33/1
f 35/35/1 4/4/1 36/36/1
f 4/4/1 37/37/1 36/36/1
f 37/37/1 6/6/1 38/38/1
f 38/38/1 7/7/1 39/39/1
f 39/39/1 8/8/1 40/40/1
f 8/8/1 41/41/1 40/40/1
f 9/9/1 42/42/1 41/41/1
f 10/10/1 43/43/1 42/42/1
f 43/43/1 12/12/1 44/44/1
f 12/12/1 45/45/1 44/44/1
f 45/45/1 14/14/1 46/46/1
f 46/46/1 15/15/1 47/47/1
f 47/47/1 16/16/1 48/48/1
f 16/16/1 49/49/1 48/48/1
f 17/17/1 50/50/1 49/49/1
f 18/18/1 51/51/1 50/50/1
f 51/51/1 20/20/1 52/52/1
f 20/20/1 53/53/1 52/52/1
f 53/53/1 22/22/1 54/54/1
f 54/54/1 23/23/1 55/55/1
f 23/23/1 56/56/1 55/55/1
f 24/24/1 57/57/1 56/56/1
f 57/57/1 26/26/1 58/58/1
f 26/26/1 59/59/1 58/58/1
f 59/59/1 28/28/1 60/60/1
f 28/28/1 61/61/1 60/60/1
f 61/61/1 30/30/1 62/62/1
f 62/62/1 31/31/1 63/63/1
f 31/31/1 64/64/1 63/63/1
f 32/32/1 34/34/1 64/64/1
f 34/34/1 1/1/1 2/2/1
f 2/2/1 3/3/1 35/35/1
f 35/35/1 3/3/1 4/4/1
f 4/4/1 5/5/1 37/37/1
f 37/37/1 5/5/1 6/6/1
f 38/38/1 6/6/1 7/7/1
f 39/39/1 7/7/1 8/8/1
f 8/8/1 9/9/1 41/41/1
f 9/9/1 10/10/1 42/42/1
f 10/10/1 11/11/1 43/43/1
f 43/43/1 11/11/1 12/12/1
f 12/12/1 13/13/1 45/45/1
f 45/45/1 13/13/1 14/14/1
f 46/46/1 14/14/1 15/15/1
f 47/47/1 15/15/1 16/16/1
f 16/16/1 17/17/1 49/49/1
f 17/17/1 18/18/1 50/50/1
f 18/18/1 19/19/1 51/51/1
f 51/51/1 19/19/1 20/20/1
f 20/20/1 21/21/1 53/53/1
f 53/53/1 21/21/1 22/22/1
f 54/54/1 22/22/1 23/23/1
f 23/23/1 24/24/1 56/56/1
f 24/24/1 25/25/1 57/57/1
f 57/57/1 25/25/1 26/26/1
f 26/26/1 27/27/1 59/59/1
f 59/59/1 27/27/1 28/28/1
f 28/28/1 29/29/1 61/61/1
f 61/61/1 29/29/1 30/30/1
f 62/62/1 30/30/1 31/31/1
f 31/31/1 32/32/1 64/64/1
f 32/32/1 1/1/1 34/34/1
f 98/98/2 66/66/2 97/97/2
f 66/66/2 99/99/2 97/97/2
f 99/99/2 68/68/2 100/100/2
f 68/68/2 101/101/2 100/100/2
f 101/101/2 70/70/2 102/102/2
f 102/102/2 71/71/2 103/103/2
f 103/103/2 72/72/2 104/104/2
f 72/72/2 105/105/2 104/104/2
f 73/73/2 106/106/2 105/105/2
f 74/74/2 107/107/2 106/106/2
f 107/107/2 76/76/2 108/108/2
f 76/76/2 109/109/2 108/108/2
f 109/109/2 78/78/2 110/110/2
f 110/110/2 79/79/2 111/111/2
f 111/111/2 80/80/2 112/112/2
f 80/80/2 113/113/2 112/112/2
f 81/81/2 114/114/2 113/113/2
f 82/82/2 115/115/2 114/114/2
f 115/115/2 84/84/2 116/116/2
f 84/84/2 117/117/2 116/116/2
f 117/117/2 86/86/2 118/118/2
f 118/118/2 87/87/2 119/119/2
f 87/87/2 120/120/2 119/119/2
f 88/88/2 121/121/2 120/120/2
f 121/121/2 90/90/2 122/122/2
f 90/90/2 123/123/2 122/122/2
f 123/123/2 92/92/2 124/124/2
f 92/92/2 125/125/2 124/124/2
f 125/125/2 94/94/2 126/126/2
f 126/126/2 95/95/2 127/127/2
f 95/95/2 128/128/2 127/127/2
f 96/96/2 98/98/2 128/128/2
f 98/98/2 65/65/2 66/66/2
f 66/66/2 67/67/2 99/99/2
f 99/99/2 67/67/2 68/68/2
f 68/68/2 69/69/2 101/101/2
f 101/101/2 69/69/2 70/70/2
f 102/102/2 70/70/2 71/71/2
f 103/103/2 71/71/2 72/72/2
f 72/72/2 73/73/2 105/105/2
f 73/73/2 74/74/2 106/106/2
f 74/74/2 75/75/2 107/107/2
f 107/107/2 75/75/2 76/76/2
f 76/76/2 77/77/2 109/109/2
f 109/109/2 77/77/2 78/78/2
f 110/110/2 78/78/2 79/79/2
f 111/111/2 79/79/2 80/80/2
f 80/80/2 81/81/2 113/113/2
f 81/81/2 82/82/2 114/114/2
f 82/82/2 83/83/2 115/115/2
f 115/115/2 83/83/2 84/84/2
f 84/84/2 85/85/2 117/117/2
f 117/117/2 85/85/2 86/86/2
f 118/118/2 86/86/2 87/87/2
f 87/87/2 88/88/2 120/120/2
f 88/88/2 89/89/2 121/121/2
f 121/121/2 89/89/2 90/90/2
f 90/90/2 91/91/2 123/123/2
f 123/123/2 91/91/2 92/92/2
f 92/92/2 93/93/2 125/125/2
f 125/125/2 93/93/2 94/94/2
f 126/126/2 94/94/2 95/95/2
f 95/95/2 96/96/2 128/128/2
f 96/96/2 65/65/2 98/98/2
