# Blender 4.1.0 Alpha
# www.blender.org
o Circle
v 0.000000 0.000000 -5.000000
v -0.975452 0.000000 -4.903926
v -1.913417 0.000000 -4.619398
v -2.777851 0.000000 -4.157348
v -3.535534 0.000000 -3.535534
v -4.157348 0.000000 -2.777851
v -4.619398 0.000000 -1.913417
v -4.903926 0.000000 -0.975452
v -5.000000 0.000000 0.000000
v -4.903926 0.000000 0.975452
v -4.619398 0.000000 1.913417
v -4.157348 0.000000 2.777851
v -3.535534 0.000000 3.535534
v -2.777851 0.000000 4.157348
v -1.913417 0.000000 4.619398
v -0.975452 0.000000 4.903926
v 0.000000 0.000000 5.000000
v 0.975452 0.000000 4.903926
v 1.913417 0.000000 4.619398
v 2.777851 0.000000 4.157348
v 3.535534 0.000000 3.535534
v 4.157348 0.000000 2.777851
v 4.619398 0.000000 1.913417
v 4.903926 0.000000 0.975452
v 5.000000 0.000000 0.000000
v 4.903926 0.000000 -0.975452
v 4.619398 0.000000 -1.913417
v 4.157348 0.000000 -2.777851
v 3.535534 0.000000 -3.535534
v 2.777851 0.000000 -4.157348
v 1.913417 0.000000 -4.619398
v 0.975452 0.000000 -4.903926
v -0.902677 0.000000 -4.538065
v 0.000000 0.000000 -4.626971
v -1.770665 0.000000 -4.274764
v -2.570607 0.000000 -3.847186
v -3.271762 0.000000 -3.271762
v -3.847186 0.000000 -2.570607
v -4.274764 0.000000 -1.770665
v -4.538065 0.000000 -0.902677
v -4.626971 0.000000 0.000000
v -4.538065 0.000000 0.902677
v -4.274764 0.000000 1.770665
v -3.847186 0.000000 2.570607
v -3.271762 0.000000 3.271762
v -2.570607 0.000000 3.847186
v -1.770665 0.000000 4.274764
v -0.902677 0.000000 4.538065
v 0.000000 0.000000 4.626971
v 0.902677 0.000000 4.538065
v 1.770665 0.000000 4.274764
v 2.570607 0.000000 3.847186
v 3.271762 0.000000 3.271762
v 3.847186 0.000000 2.570607
v 4.274764 0.000000 1.770665
v 4.538065 0.000000 0.902677
v 4.626971 0.000000 0.000000
v 4.538065 0.000000 -0.902677
v 4.274764 0.000000 -1.770665
v 3.847186 0.000000 -2.570607
v 3.271762 0.000000 -3.271762
v 2.570607 0.000000 -3.847186
v 1.770665 0.000000 -4.274764
v 0.902677 0.000000 -4.538065
vn -0.0000 1.0000 -0.0000
vt 0.500000 0.750000
vt 0.402455 0.990393
vt 0.451227 0.745196
vt 0.404329 0.730970
vt 0.222215 0.915735
vt 0.361107 0.707867
vt 0.323223 0.676777
vt 0.084265 0.777785
vt 0.292133 0.638893
vt 0.038060 0.691342
vt 0.269030 0.595671
vt 0.009607 0.597545
vt 0.254804 0.548773
vt 0.250000 0.500000
vt 0.000000 0.500000
vt 0.254804 0.451227
vt 0.009607 0.402455
vt 0.269030 0.404329
vt 0.084265 0.222215
vt 0.292133 0.361107
vt 0.323223 0.323223
vt 0.222215 0.084265
vt 0.361107 0.292133
vt 0.308658 0.038060
vt 0.404329 0.269030
vt 0.402455 0.009607
vt 0.451227 0.254804
vt 0.500000 0.250000
vt 0.500000 0.000000
vt 0.548773 0.254804
vt 0.597545 0.009607
vt 0.595671 0.269030
vt 0.777785 0.084265
vt 0.638893 0.292133
vt 0.676777 0.323223
vt 0.915735 0.222215
vt 0.707867 0.361107
vt 0.961940 0.308658
vt 0.730970 0.404329
vt 0.745196 0.451227
vt 0.990393 0.402455
vt 0.750000 0.500000
vt 0.990393 0.597545
vt 0.745196 0.548773
vt 0.730970 0.595671
vt 0.915735 0.777785
vt 0.707867 0.638893
vt 0.676777 0.676777
vt 0.777785 0.915735
vt 0.638893 0.707867
vt 0.691342 0.961940
vt 0.595671 0.730970
vt 0.548773 0.745196
vt 0.597545 0.990393
vt 0.500000 1.000000
vt 0.308658 0.961940
vt 0.146447 0.853553
vt 0.038060 0.308658
vt 0.146447 0.146447
vt 0.691342 0.038060
vt 0.853553 0.146447
vt 1.000000 0.500000
vt 0.961940 0.691342
vt 0.853553 0.853553
s 0
f 34/1/1 2/2/1 33/3/1
f 2/2/1 35/4/1 33/3/1
f 35/4/1 4/5/1 36/6/1
f 4/5/1 37/7/1 36/6/1
f 37/7/1 6/8/1 38/9/1
f 38/9/1 7/10/1 39/11/1
f 39/11/1 8/12/1 40/13/1
f 8/12/1 41/14/1 40/13/1
f 9/15/1 42/16/1 41/14/1
f 10/17/1 43/18/1 42/16/1
f 43/18/1 12/19/1 44/20/1
f 12/19/1 45/21/1 44/20/1
f 45/21/1 14/22/1 46/23/1
f 46/23/1 15/24/1 47/25/1
f 47/25/1 16/26/1 48/27/1
f 16/26/1 49/28/1 48/27/1
f 17/29/1 50/30/1 49/28/1
f 18/31/1 51/32/1 50/30/1
f 51/32/1 20/33/1 52/34/1
f 20/33/1 53/35/1 52/34/1
f 53/35/1 22/36/1 54/37/1
f 54/37/1 23/38/1 55/39/1
f 23/38/1 56/40/1 55/39/1
f 24/41/1 57/42/1 56/40/1
f 57/42/1 26/43/1 58/44/1
f 26/43/1 59/45/1 58/44/1
f 59/45/1 28/46/1 60/47/1
f 28/46/1 61/48/1 60/47/1
f 61/48/1 30/49/1 62/50/1
f 62/50/1 31/51/1 63/52/1
f 31/51/1 64/53/1 63/52/1
f 32/54/1 34/1/1 64/53/1
f 34/1/1 1/55/1 2/2/1
f 2/2/1 3/56/1 35/4/1
f 35/4/1 3/56/1 4/5/1
f 4/5/1 5/57/1 37/7/1
f 37/7/1 5/57/1 6/8/1
f 38/9/1 6/8/1 7/10/1
f 39/11/1 7/10/1 8/12/1
f 8/12/1 9/15/1 41/14/1
f 9/15/1 10/17/1 42/16/1
f 10/17/1 11/58/1 43/18/1
f 43/18/1 11/58/1 12/19/1
f 12/19/1 13/59/1 45/21/1
f 45/21/1 13/59/1 14/22/1
f 46/23/1 14/22/1 15/24/1
f 47/25/1 15/24/1 16/26/1
f 16/26/1 17/29/1 49/28/1
f 17/29/1 18/31/1 50/30/1
f 18/31/1 19/60/1 51/32/1
f 51/32/1 19/60/1 20/33/1
f 20/33/1 21/61/1 53/35/1
f 53/35/1 21/61/1 22/36/1
f 54/37/1 22/36/1 23/38/1
f 23/38/1 24/41/1 56/40/1
f 24/41/1 25/62/1 57/42/1
f 57/42/1 25/62/1 26/43/1
f 26/43/1 27/63/1 59/45/1
f 59/45/1 27/63/1 28/46/1
f 28/46/1 29/64/1 61/48/1
f 61/48/1 29/64/1 30/49/1
f 62/50/1 30/49/1 31/51/1
f 31/51/1 32/54/1 64/53/1
f 32/54/1 1/55/1 34/1/1
