# Blender 3.4.1
# www.blender.org
mtllib debug_cube.mtl
o Cube
v 1.000000 1.000000 -1.000000
v 1.000000 -1.000000 -1.000000
v 1.000000 1.000000 1.000000
v 1.000000 -1.000000 1.000000
v -1.000000 1.000000 -1.000000
v -1.000000 -1.000000 -1.000000
v -1.000000 1.000000 1.000000
v -1.000000 -1.000000 1.000000
vn -0.0000 1.0000 -0.0000
vn -0.0000 -0.0000 1.0000
vn -1.0000 -0.0000 -0.0000
vn -0.0000 -1.0000 -0.0000
vn 1.0000 -0.0000 -0.0000
vn -0.0000 -0.0000 -1.0000
vt 0.731001 0.639496
vt 0.635911 0.635911
vt 0.026525 0.633631
vt 0.635911 0.364089
vt 0.999900 0.999900
vt 0.026525 0.366368
vt 0.969688 0.639496
vt 0.622630 0.954661
vt 0.364089 0.635911
vt 0.622630 0.760183
vt 0.000100 0.999900
vt 0.364089 0.364089
vt 0.731001 0.400809
vt 0.739900 0.963225
vt 0.293788 0.633632
vt 0.999900 0.000100
vt 0.293788 0.366368
vt 0.739900 0.743806
vt 0.969688 0.400809
vt 0.428151 0.954661
vt 0.959319 0.963225
vt 0.959319 0.743806
vt 0.428151 0.760183
vt 0.000100 0.000100
s 0
usemtl Material
f 5/13/1 3/7/1 1/1/1
f 3/8/2 8/23/2 4/10/2
f 7/21/3 6/18/3 8/22/3
f 2/5/4 8/24/4 6/16/4
f 1/2/5 4/12/5 2/4/5
f 5/15/6 2/6/6 6/17/6
f 5/13/1 7/19/1 3/7/1
f 3/8/2 7/20/2 8/23/2
f 7/21/3 5/14/3 6/18/3
f 2/5/4 4/11/4 8/24/4
f 1/2/5 3/9/5 4/12/5
f 5/15/6 1/3/6 2/6/6
