# Blender 4.4.3
# www.blender.org
mtllib SubdividedCube.mtl
o Cube
v -0.500000 -0.500000 0.500000
v -0.500000 0.500000 0.500000
v -0.500000 -0.500000 -0.500000
v -0.500000 0.500000 -0.500000
v 0.500000 -0.500000 0.500000
v 0.500000 0.500000 0.500000
v 0.500000 -0.500000 -0.500000
v 0.500000 0.500000 -0.500000
v -0.500000 0.000000 0.500000
v -0.500000 0.000000 0.000000
v -0.500000 -0.500000 0.000000
v -0.500000 -0.000000 -0.500000
v 0.000000 -0.000000 -0.500000
v 0.000000 -0.500000 -0.500000
v 0.500000 -0.000000 -0.500000
v 0.500000 0.000000 0.000000
v 0.500000 -0.500000 0.000000
v 0.500000 0.000000 0.500000
v 0.000000 0.000000 0.500000
v 0.000000 -0.500000 0.500000
v 0.000000 -0.500000 0.000000
v 0.000000 0.500000 -0.500000
v 0.000000 0.500000 -0.000000
v 0.500000 0.500000 -0.000000
v -0.500000 0.500000 -0.000000
v 0.000000 0.500000 0.500000
v -0.500000 0.250000 0.500000
v -0.500000 -0.250000 -0.250000
v -0.500000 -0.500000 -0.250000
v -0.500000 0.250000 -0.500000
v 0.250000 -0.250000 -0.500000
v 0.250000 -0.500000 -0.500000
v 0.500000 0.250000 -0.500000
v 0.500000 0.250000 -0.250000
v 0.500000 -0.500000 -0.250000
v 0.500000 0.250000 0.500000
v 0.250000 0.250000 0.500000
v 0.250000 -0.500000 0.500000
v 0.250000 -0.500000 -0.250000
v 0.250000 0.500000 -0.500000
v 0.250000 0.500000 0.250000
v 0.500000 0.500000 -0.250000
v -0.500000 0.500000 -0.250000
v 0.250000 0.500000 0.500000
v -0.500000 -0.250000 0.500000
v -0.500000 0.250000 0.250000
v -0.500000 -0.500000 0.250000
v -0.500000 -0.250000 -0.500000
v -0.250000 0.250000 -0.500000
v -0.250000 -0.500000 -0.500000
v 0.500000 -0.250000 -0.500000
v 0.500000 -0.250000 0.250000
v 0.500000 -0.500000 0.250000
v 0.500000 -0.250000 0.500000
v -0.250000 -0.250000 0.500000
v -0.250000 -0.500000 0.500000
v -0.250000 -0.500000 0.250000
v -0.250000 0.500000 -0.500000
v -0.250000 0.500000 -0.250000
v 0.500000 0.500000 0.250000
v -0.500000 0.500000 0.250000
v -0.250000 0.500000 0.500000
v 0.000000 0.500000 0.250000
v -0.250000 0.500000 -0.000000
v -0.250000 0.500000 0.250000
v 0.000000 -0.500000 0.250000
v 0.250000 -0.500000 0.000000
v 0.250000 -0.500000 0.250000
v -0.250000 0.000000 0.500000
v 0.000000 0.250000 0.500000
v -0.250000 0.250000 0.500000
v 0.500000 0.000000 0.250000
v 0.500000 0.250000 -0.000000
v 0.500000 0.250000 0.250000
v 0.250000 -0.000000 -0.500000
v 0.000000 0.250000 -0.500000
v 0.250000 0.250000 -0.500000
v -0.500000 -0.000000 -0.250000
v -0.500000 0.250000 -0.000000
v -0.500000 0.250000 -0.250000
v 0.250000 0.500000 -0.250000
v 0.000000 0.500000 -0.250000
v 0.250000 0.500000 -0.000000
v -0.250000 -0.500000 -0.250000
v 0.000000 -0.500000 -0.250000
v -0.250000 -0.500000 0.000000
v 0.250000 -0.250000 0.500000
v 0.250000 0.000000 0.500000
v 0.000000 -0.250000 0.500000
v 0.500000 -0.250000 -0.250000
v 0.500000 -0.000000 -0.250000
v 0.500000 -0.250000 0.000000
v -0.250000 -0.250000 -0.500000
v -0.250000 -0.000000 -0.500000
v 0.000000 -0.250000 -0.500000
v -0.500000 -0.250000 0.250000
v -0.500000 0.000000 0.250000
v -0.500000 -0.250000 0.000000
vn -1.0000 -0.0000 -0.0000
vn -0.0000 -0.0000 -1.0000
vn 1.0000 -0.0000 -0.0000
vn -0.0000 -0.0000 1.0000
vn -0.0000 -1.0000 -0.0000
vn -0.0000 1.0000 -0.0000
vt 0.000100 0.000100
vt 0.250050 0.250050
vt 0.000100 0.250050
vt 0.999900 0.000100
vt 0.749950 0.250050
vt 0.749950 0.000100
vt 0.999900 0.999900
vt 0.749950 0.749950
vt 0.999900 0.749950
vt 0.250050 0.000100
vt 0.999900 0.250050
vt 0.749950 0.999900
vt 0.500000 0.500000
vt 0.250050 0.500000
vt 0.500000 0.749950
vt 0.500000 0.999900
vt 0.250050 0.999900
vt 0.250050 0.749950
vt 0.749950 0.500000
vt 0.500000 0.250050
vt 0.500000 0.000100
vt 0.999900 0.500000
vt 0.000100 0.500000
vt 0.000100 0.749950
vt 0.000100 0.999900
s 1
f 2/1/1 46/2/1 27/3/1
f 4/1/2 49/2/2 30/3/2
f 8/1/3 34/2/3 33/3/3
f 6/4/4 37/5/4 36/6/4
f 7/1/5 39/2/5 32/3/5
f 4/7/6 59/8/6 58/9/6
f 2/1/1 61/10/1 46/2/1
f 4/1/2 58/10/2 49/2/2
f 8/1/3 42/10/3 34/2/3
f 6/4/4 44/11/4 37/5/4
f 7/1/5 35/10/5 39/2/5
f 4/7/6 43/12/6 59/8/6
f 23/13/6 63/14/6 41/2/6
f 23/13/6 64/15/6 63/14/6
f 25/16/6 61/17/6 65/18/6
f 21/13/5 66/19/5 57/8/5
f 21/13/5 67/20/5 66/19/5
f 17/21/5 53/6/5 68/5/5
f 19/13/4 69/15/4 55/18/4
f 19/13/4 70/19/4 69/15/4
f 26/22/4 62/9/4 71/8/4
f 16/13/3 72/19/3 52/8/3
f 16/13/3 73/20/3 72/19/3
f 24/21/3 60/6/3 74/5/3
f 13/13/2 75/19/2 31/8/2
f 13/13/2 76/20/2 75/19/2
f 22/21/2 40/6/2 77/5/2
f 10/13/1 78/19/1 28/8/1
f 10/13/1 79/20/1 78/19/1
f 25/21/1 43/6/1 80/5/1
f 22/22/6 81/5/6 40/11/6
f 22/22/6 82/19/6 81/5/6
f 23/13/6 41/2/6 83/20/6
f 14/23/5 84/18/5 50/24/5
f 14/23/5 85/14/5 84/18/5
f 21/13/5 57/8/5 86/15/5
f 18/21/4 87/2/4 54/10/4
f 18/21/4 88/20/4 87/2/4
f 19/13/4 55/18/4 89/14/4
f 15/23/3 90/18/3 51/24/3
f 15/23/3 91/14/3 90/18/3
f 16/13/3 52/8/3 92/15/3
f 12/23/2 93/18/2 48/24/2
f 12/23/2 94/14/2 93/18/2
f 13/13/2 31/8/2 95/15/2
f 9/23/1 96/18/1 45/24/1
f 9/23/1 97/14/1 96/18/1
f 10/13/1 28/8/1 98/15/1
f 98/15/1 29/12/1 11/16/1
f 98/15/1 28/8/1 29/12/1
f 28/8/1 3/7/1 29/12/1
f 96/18/1 98/15/1 11/16/1
f 96/18/1 97/14/1 98/15/1
f 97/14/1 10/13/1 98/15/1
f 45/24/1 47/17/1 1/25/1
f 45/24/1 96/18/1 47/17/1
f 96/18/1 11/16/1 47/17/1
f 95/15/2 32/12/2 14/16/2
f 95/15/2 31/8/2 32/12/2
f 31/8/2 7/7/2 32/12/2
f 93/18/2 95/15/2 14/16/2
f 93/18/2 94/14/2 95/15/2
f 94/14/2 13/13/2 95/15/2
f 48/24/2 50/17/2 3/25/2
f 48/24/2 93/18/2 50/17/2
f 93/18/2 14/16/2 50/17/2
f 92/15/3 53/12/3 17/16/3
f 92/15/3 52/8/3 53/12/3
f 52/8/3 5/7/3 53/12/3
f 90/18/3 92/15/3 17/16/3
f 90/18/3 91/14/3 92/15/3
f 91/14/3 16/13/3 92/15/3
f 51/24/3 35/17/3 7/25/3
f 51/24/3 90/18/3 35/17/3
f 90/18/3 17/16/3 35/17/3
f 89/14/4 56/24/4 20/23/4
f 89/14/4 55/18/4 56/24/4
f 55/18/4 1/25/4 56/24/4
f 87/2/4 89/14/4 20/23/4
f 87/2/4 88/20/4 89/14/4
f 88/20/4 19/13/4 89/14/4
f 54/10/4 38/3/4 5/1/4
f 54/10/4 87/2/4 38/3/4
f 87/2/4 20/23/4 38/3/4
f 86/15/5 47/12/5 11/16/5
f 86/15/5 57/8/5 47/12/5
f 57/8/5 1/7/5 47/12/5
f 84/18/5 86/15/5 11/16/5
f 84/18/5 85/14/5 86/15/5
f 85/14/5 21/13/5 86/15/5
f 50/24/5 29/17/5 3/25/5
f 50/24/5 84/18/5 29/17/5
f 84/18/5 11/16/5 29/17/5
f 83/20/6 60/10/6 24/21/6
f 83/20/6 41/2/6 60/10/6
f 41/2/6 6/1/6 60/10/6
f 81/5/6 83/20/6 24/21/6
f 81/5/6 82/19/6 83/20/6
f 82/19/6 23/13/6 83/20/6
f 40/11/6 42/6/6 8/4/6
f 40/11/6 81/5/6 42/6/6
f 81/5/6 24/21/6 42/6/6
f 80/5/1 30/11/1 12/22/1
f 80/5/1 43/6/1 30/11/1
f 43/6/1 4/4/1 30/11/1
f 78/19/1 80/5/1 12/22/1
f 78/19/1 79/20/1 80/5/1
f 79/20/1 25/21/1 80/5/1
f 28/8/1 48/9/1 3/7/1
f 28/8/1 78/19/1 48/9/1
f 78/19/1 12/22/1 48/9/1
f 77/5/2 33/11/2 15/22/2
f 77/5/2 40/6/2 33/11/2
f 40/6/2 8/4/2 33/11/2
f 75/19/2 77/5/2 15/22/2
f 75/19/2 76/20/2 77/5/2
f 76/20/2 22/21/2 77/5/2
f 31/8/2 51/9/2 7/7/2
f 31/8/2 75/19/2 51/9/2
f 75/19/2 15/22/2 51/9/2
f 74/5/3 36/11/3 18/22/3
f 74/5/3 60/6/3 36/11/3
f 60/6/3 6/4/3 36/11/3
f 72/19/3 74/5/3 18/22/3
f 72/19/3 73/20/3 74/5/3
f 73/20/3 24/21/3 74/5/3
f 52/8/3 54/9/3 5/7/3
f 52/8/3 72/19/3 54/9/3
f 72/19/3 18/22/3 54/9/3
f 71/8/4 27/12/4 9/16/4
f 71/8/4 62/9/4 27/12/4
f 62/9/4 2/7/4 27/12/4
f 69/15/4 71/8/4 9/16/4
f 69/15/4 70/19/4 71/8/4
f 70/19/4 26/22/4 71/8/4
f 55/18/4 45/17/4 1/25/4
f 55/18/4 69/15/4 45/17/4
f 69/15/4 9/16/4 45/17/4
f 68/5/5 38/11/5 20/22/5
f 68/5/5 53/6/5 38/11/5
f 53/6/5 5/4/5 38/11/5
f 66/19/5 68/5/5 20/22/5
f 66/19/5 67/20/5 68/5/5
f 67/20/5 17/21/5 68/5/5
f 57/8/5 56/9/5 1/7/5
f 57/8/5 66/19/5 56/9/5
f 66/19/5 20/22/5 56/9/5
f 65/18/6 62/24/6 26/23/6
f 65/18/6 61/17/6 62/24/6
f 61/17/6 2/25/6 62/24/6
f 63/14/6 65/18/6 26/23/6
f 63/14/6 64/15/6 65/18/6
f 64/15/6 25/16/6 65/18/6
f 41/2/6 44/3/6 6/1/6
f 41/2/6 63/14/6 44/3/6
f 63/14/6 26/23/6 44/3/6
f 59/8/6 64/15/6 23/13/6
f 59/8/6 43/12/6 64/15/6
f 43/12/6 25/16/6 64/15/6
f 39/2/5 67/20/5 21/13/5
f 39/2/5 35/10/5 67/20/5
f 35/10/5 17/21/5 67/20/5
f 37/5/4 70/19/4 19/13/4
f 37/5/4 44/11/4 70/19/4
f 44/11/4 26/22/4 70/19/4
f 34/2/3 73/20/3 16/13/3
f 34/2/3 42/10/3 73/20/3
f 42/10/3 24/21/3 73/20/3
f 49/2/2 76/20/2 13/13/2
f 49/2/2 58/10/2 76/20/2
f 58/10/2 22/21/2 76/20/2
f 46/2/1 79/20/1 10/13/1
f 46/2/1 61/10/1 79/20/1
f 61/10/1 25/21/1 79/20/1
f 58/9/6 82/19/6 22/22/6
f 58/9/6 59/8/6 82/19/6
f 59/8/6 23/13/6 82/19/6
f 32/3/5 85/14/5 14/23/5
f 32/3/5 39/2/5 85/14/5
f 39/2/5 21/13/5 85/14/5
f 36/6/4 88/20/4 18/21/4
f 36/6/4 37/5/4 88/20/4
f 37/5/4 19/13/4 88/20/4
f 33/3/3 91/14/3 15/23/3
f 33/3/3 34/2/3 91/14/3
f 34/2/3 16/13/3 91/14/3
f 30/3/2 94/14/2 12/23/2
f 30/3/2 49/2/2 94/14/2
f 49/2/2 13/13/2 94/14/2
f 27/3/1 97/14/1 9/23/1
f 27/3/1 46/2/1 97/14/1
f 46/2/1 10/13/1 97/14/1
